<svg width="143" height="35" viewBox="0 0 143 35" fill="none" xmlns="http://www.w3.org/2000/svg">
<g clip-path="url(#clip0_2241_157)">
<path d="M48.7632 22.7219L53.5349 11.4894H53.6386L58.4102 22.7219H56.4245L53.0607 14.2012L54.3054 13.3565L50.4674 22.7219H48.7632ZM51.7566 18.7209H55.4465L56.0392 20.1879H51.238L51.7566 18.7209ZM60.5473 11.9339H67.7047V13.5936H62.2811V16.4684H67.112V18.143H62.2811V21.0622H67.9122V22.7219H60.5473V11.9339ZM69.5007 21.818C69.5007 21.5611 69.5946 21.3487 69.7823 21.1808C69.97 21.003 70.1774 20.914 70.4047 20.914C70.6121 20.914 70.8097 21.003 70.9974 21.1808C71.1851 21.3487 71.279 21.5611 71.279 21.818C71.279 22.0946 71.1851 22.3169 70.9974 22.4848C70.8097 22.6429 70.6121 22.7219 70.4047 22.7219C70.1774 22.7219 69.97 22.6429 69.7823 22.4848C69.5946 22.3169 69.5007 22.0946 69.5007 21.818ZM79.0726 14.1271C78.6873 13.9295 78.2773 13.7616 77.8426 13.6233C77.408 13.4751 76.993 13.401 76.5979 13.401C76.0644 13.401 75.6396 13.5195 75.3235 13.7566C75.0172 13.9937 74.8641 14.3197 74.8641 14.7347C74.8641 15.031 74.9728 15.2928 75.1901 15.5201C75.4074 15.7374 75.684 15.93 76.0199 16.098C76.3558 16.256 76.7115 16.4092 77.0869 16.5574C77.4129 16.6759 77.734 16.8192 78.0501 16.9871C78.3761 17.1452 78.6675 17.3427 78.9244 17.5798C79.1813 17.8169 79.3838 18.1133 79.532 18.469C79.69 18.8147 79.7691 19.2445 79.7691 19.7582C79.7691 20.3213 79.6258 20.84 79.3393 21.3141C79.0528 21.7785 78.6428 22.1489 78.1094 22.4255C77.5759 22.7022 76.9239 22.8405 76.1533 22.8405C75.7087 22.8405 75.2691 22.7911 74.8344 22.6923C74.4096 22.5935 74.0046 22.4601 73.6193 22.2922C73.234 22.1144 72.8784 21.9168 72.5524 21.6994L73.3229 20.3509C73.56 20.5288 73.8317 20.6918 74.138 20.8399C74.4442 20.9881 74.7604 21.1067 75.0864 21.1956C75.4124 21.2746 75.7186 21.3141 76.0051 21.3141C76.3114 21.3141 76.6127 21.2647 76.9091 21.166C77.2153 21.0672 77.4672 20.9042 77.6648 20.6769C77.8723 20.4497 77.976 20.1484 77.976 19.773C77.976 19.4668 77.8871 19.205 77.7093 18.9876C77.5314 18.7703 77.2993 18.5826 77.0128 18.4245C76.7362 18.2566 76.4299 18.1084 76.094 17.98C75.7581 17.8515 75.4124 17.7083 75.0567 17.5502C74.711 17.3921 74.3899 17.1995 74.0935 16.9723C73.7971 16.7352 73.5551 16.4487 73.3674 16.1128C73.1797 15.7769 73.0858 15.362 73.0858 14.868C73.0858 14.2753 73.2242 13.7616 73.5008 13.3269C73.7774 12.8922 74.1577 12.5464 74.6418 12.2896C75.1358 12.0327 75.7038 11.8944 76.3459 11.8747C77.1066 11.8747 77.7537 11.9685 78.2872 12.1562C78.8305 12.334 79.3097 12.5514 79.7246 12.8082L79.0726 14.1271ZM81.5191 11.9339H88.7358V13.5936H85.9499V22.7219H84.231V13.5936H81.5191V11.9339ZM92.7813 18.8394C92.7813 19.2642 92.89 19.6545 93.1073 20.0101C93.3345 20.3559 93.6309 20.6374 93.9964 20.8548C94.362 21.0622 94.772 21.166 95.2264 21.166C95.7006 21.166 96.1254 21.0622 96.5008 20.8548C96.8762 20.6374 97.1726 20.3559 97.3899 20.0101C97.6073 19.6545 97.7159 19.2642 97.7159 18.8394V11.9339H99.4201V18.8839C99.4201 19.6643 99.2324 20.3559 98.857 20.9585C98.4816 21.5512 97.9777 22.0156 97.3455 22.3515C96.7132 22.6775 96.0068 22.8405 95.2264 22.8405C94.4558 22.8405 93.7544 22.6775 93.1221 22.3515C92.4899 22.0156 91.986 21.5512 91.6106 20.9585C91.2451 20.3559 91.0624 19.6643 91.0624 18.8839V11.9339H92.7813V18.8394ZM102.506 22.7219V11.9339H105.573C106.65 11.9339 107.564 12.0969 108.314 12.423C109.065 12.7391 109.673 13.1688 110.137 13.7122C110.601 14.2456 110.937 14.8433 111.145 15.5052C111.362 16.1573 111.471 16.8142 111.471 17.4761C111.471 18.2862 111.328 19.0123 111.041 19.6545C110.755 20.2966 110.364 20.8498 109.87 21.3141C109.376 21.7686 108.803 22.1193 108.151 22.3663C107.509 22.6034 106.823 22.7219 106.092 22.7219H102.506ZM104.239 21.0622H105.78C106.353 21.0622 106.877 20.9832 107.351 20.8251C107.825 20.6572 108.235 20.4201 108.581 20.1138C108.937 19.7977 109.209 19.4075 109.396 18.9432C109.594 18.4788 109.693 17.9503 109.693 17.3576C109.693 16.6858 109.579 16.1128 109.352 15.6386C109.134 15.1545 108.843 14.7643 108.477 14.4679C108.122 14.1617 107.732 13.9394 107.307 13.8011C106.882 13.6628 106.462 13.5936 106.047 13.5936H104.239V21.0622ZM114.075 11.9339H115.809V22.7219H114.075V11.9339ZM118.408 17.3427C118.408 16.5919 118.551 15.8856 118.837 15.2237C119.124 14.5618 119.519 13.974 120.023 13.4603C120.527 12.9465 121.11 12.5464 121.772 12.2599C122.443 11.9636 123.16 11.8154 123.92 11.8154C124.671 11.8154 125.377 11.9636 126.039 12.2599C126.711 12.5464 127.299 12.9465 127.803 13.4603C128.316 13.974 128.717 14.5618 129.003 15.2237C129.299 15.8856 129.448 16.5919 129.448 17.3427C129.448 18.1034 129.299 18.8147 129.003 19.4766C128.717 20.1385 128.316 20.7263 127.803 21.2401C127.299 21.7439 126.711 22.1391 126.039 22.4255C125.377 22.7022 124.671 22.8405 123.92 22.8405C123.15 22.8405 122.433 22.7022 121.772 22.4255C121.11 22.1391 120.527 21.7488 120.023 21.2549C119.519 20.751 119.124 20.1682 118.837 19.5063C118.551 18.8345 118.408 18.1133 118.408 17.3427ZM120.186 17.3427C120.186 17.8762 120.28 18.3751 120.467 18.8394C120.665 19.3037 120.937 19.7137 121.283 20.0694C121.628 20.4151 122.028 20.6868 122.483 20.8844C122.937 21.082 123.431 21.1808 123.965 21.1808C124.478 21.1808 124.958 21.082 125.402 20.8844C125.857 20.6868 126.252 20.4151 126.588 20.0694C126.923 19.7137 127.185 19.3037 127.373 18.8394C127.571 18.3751 127.669 17.8762 127.669 17.3427C127.669 16.7994 127.571 16.2956 127.373 15.8312C127.175 15.3669 126.909 14.9569 126.573 14.6013C126.237 14.2456 125.842 13.969 125.387 13.7715C124.933 13.5739 124.444 13.4751 123.92 13.4751C123.397 13.4751 122.908 13.5739 122.453 13.7715C121.999 13.969 121.599 14.2456 121.253 14.6013C120.917 14.9569 120.655 15.3719 120.467 15.8461C120.28 16.3104 120.186 16.8093 120.186 17.3427Z" fill="white"/>
<mask id="mask0_2241_157" style="mask-type:alpha" maskUnits="userSpaceOnUse" x="0" y="0" width="35" height="35">
<path d="M34.3299 0H0V34.3299H34.3299V0Z" fill="#D9D9D9"/>
</mask>
<g mask="url(#mask0_2241_157)">
<path d="M0 1.9796V33.5889C0 33.9982 0.331728 34.3299 0.740933 34.3299H11.6079C12.0172 34.3299 12.3489 33.9982 12.3489 33.5889V27.0867C12.3489 26.4016 13.1989 26.0835 13.6487 26.6004L20.1541 34.0752C20.2949 34.237 20.4987 34.3299 20.713 34.3299H28.2569C28.8927 34.3299 29.2333 33.582 28.8159 33.1024L1.29978 1.49312C0.849971 0.976391 0 1.29452 0 1.9796Z" fill="white"/>
<path d="M5.51407 1.22742L33.03 32.8367C33.48 33.3536 34.3299 33.0352 34.3299 32.3504V24.4508V18.0294C34.3299 17.6201 33.9982 17.2884 33.5889 17.2884H27.6249C27.4125 17.2884 27.2105 17.1974 27.07 17.0384L25.5404 15.3096C25.1174 14.8313 25.457 14.0777 26.0954 14.0777H33.5889C33.9982 14.0777 34.3299 13.746 34.3299 13.3368V9.01468C34.3299 8.60546 33.9982 8.27375 33.5889 8.27375H19.7285C19.5122 8.27375 19.3067 8.17923 19.166 8.01501L17.4724 6.03919C17.0604 5.55858 17.4019 4.81606 18.035 4.81606H33.5889C33.9982 4.81606 34.3299 4.48435 34.3299 4.07513V0.740933C34.3299 0.331728 33.9982 0 33.5889 0H6.0729C5.43723 0 5.09668 0.747947 5.51407 1.22742Z" fill="white"/>
</g>
</g>
<defs>
<clipPath id="clip0_2241_157">
<rect width="143" height="34.3299" fill="white"/>
</clipPath>
</defs>
</svg>
